<svg xmlns="http://www.w3.org/2000/svg" width="16.552" height="16.469" viewBox="0 0 16.552 16.469"><defs><style>.a{fill:#fff;}</style></defs><g transform="translate(0 -0.261)"><path class="a" d="M15.277,47.9a.412.412,0,0,0-.412.412v3.66a1.238,1.238,0,0,1-1.237,1.237H2.061A1.238,1.238,0,0,1,.824,51.976V41.233A1.238,1.238,0,0,1,2.061,40h3.66a.412.412,0,1,0,0-.824H2.061A2.064,2.064,0,0,0,0,41.233V51.976a2.064,2.064,0,0,0,2.061,2.061H13.628a2.064,2.064,0,0,0,2.061-2.061v-3.66A.412.412,0,0,0,15.277,47.9Zm0,0" transform="translate(0 -37.307)"/><path class="a" d="M119.256.8a1.855,1.855,0,0,0-2.624,0l-7.355,7.355a.412.412,0,0,0-.106.181l-.967,3.492a.412.412,0,0,0,.507.507l3.492-.967a.412.412,0,0,0,.181-.106l7.354-7.355a1.857,1.857,0,0,0,0-2.624Zm-9.08,7.623L116.2,2.407l1.941,1.941-6.019,6.019Zm-.388.778,1.551,1.551-2.145.594Zm9.368-5.876-.437.437-1.941-1.941.437-.437a1.031,1.031,0,0,1,1.457,0l.484.484A1.032,1.032,0,0,1,119.157,3.328Zm0,0" transform="translate(-103.73)"/></g></svg>