<svg xmlns="http://www.w3.org/2000/svg" width="15.731" height="18.857" viewBox="0 0 15.731 18.857"><defs><style>.a{fill:#fff;stroke:#fff;stroke-width:0.1px;}</style></defs><g transform="translate(-6.95 -1.95)"><path class="a" d="M21.693,2H7.938A.938.938,0,0,0,7,2.938v13.13a.938.938,0,0,0,.938.938h2.5a.313.313,0,1,0,0-.625h-2.5a.313.313,0,0,1-.313-.313V2.938a.313.313,0,0,1,.313-.313h4.689V9.19a.313.313,0,0,0,.486.26l1.7-1.135,1.7,1.135A.313.313,0,0,0,17,9.19V2.625h4.689a.313.313,0,0,1,.313.313v13.13a.313.313,0,0,1-.313.313h-2.5a.313.313,0,1,0,0,.625h2.5a.938.938,0,0,0,.938-.938V2.938A.938.938,0,0,0,21.693,2ZM16.378,8.606l-1.39-.926a.313.313,0,0,0-.347,0l-1.39.926V2.625h3.126Z"/><path class="a" d="M24.438,41.378a.313.313,0,0,1-.24-.113l-3.126-3.751a.313.313,0,0,1,.24-.513h1.25V32.313A.313.313,0,0,1,22.875,32H26a.313.313,0,0,1,.313.313V37h1.25a.313.313,0,0,1,.24.513l-3.126,3.751A.313.313,0,0,1,24.438,41.378ZM21.98,37.627l2.459,2.95,2.459-2.95H26a.313.313,0,0,1-.313-.313V32.625h-2.5v4.689a.313.313,0,0,1-.313.313Z" transform="translate(-9.623 -20.622)"/></g></svg>