<svg xmlns="http://www.w3.org/2000/svg" width="15.788" height="17.03" viewBox="0 0 15.788 17.03"><defs><style>.a{fill:#2e2e2e;stroke:#fff;stroke-width:0.03px;}</style></defs><g transform="translate(0.015 0.015)"><g transform="translate(0)"><path class="a" d="M24.81,16.026H20.376a2.186,2.186,0,0,1-2.183-2.183V3.157A2.186,2.186,0,0,1,20.376.974h4.506a.487.487,0,0,0,0-.974H20.376a3.16,3.16,0,0,0-3.157,3.157V13.843A3.16,3.16,0,0,0,20.376,17H24.81a.487.487,0,1,0,0-.974Z" transform="translate(-17.219)"/><path class="a" d="M132.407,139.564l-3.1-3.1a.487.487,0,0,0-.689.689l2.266,2.266h-9.882a.487.487,0,0,0,0,.974h9.882l-2.266,2.266a.489.489,0,0,0,.343.833.475.475,0,0,0,.343-.144l3.1-3.1A.487.487,0,0,0,132.407,139.564Z" transform="translate(-116.792 -131.407)"/></g></g></svg>