<svg width="7" height="29" xmlns="http://www.w3.org/2000/svg" xmlns:xlink="http://www.w3.org/1999/xlink" overflow="hidden"><defs><clipPath id="clip0"><path d="M853 301 860 301 860 330 853 330Z" fill-rule="evenodd" clip-rule="evenodd"/></clipPath></defs><g clip-path="url(#clip0)" transform="translate(-853 -301)"><path d="M856.5 323.865C857.881 323.865 859 325.015 859 326.432 859 327.85 857.881 329 856.5 329 855.119 329 854 327.85 854 326.432 854 325.015 855.119 323.865 856.5 323.865ZM856.5 312.932C857.881 312.932 859 314.082 859 315.5 859 316.918 857.881 318.068 856.5 318.068 855.119 318.068 854 316.918 854 315.5 854 314.082 855.119 312.932 856.5 312.932ZM856.5 302C857.881 302 859 303.15 859 304.568 859 305.985 857.881 307.135 856.5 307.135 855.119 307.135 854 305.985 854 304.568 854 303.15 855.119 302 856.5 302Z" fill="#FFFFFF" fill-rule="evenodd"/></g></svg>