<svg width="7" height="29" xmlns="http://www.w3.org/2000/svg" xmlns:xlink="http://www.w3.org/1999/xlink" overflow="hidden"><defs><clipPath id="clip0"><path d="M832 301 839 301 839 330 832 330Z" fill-rule="evenodd" clip-rule="evenodd"/></clipPath></defs><g clip-path="url(#clip0)" transform="translate(-832 -301)"><path d="M835.5 323.865C836.881 323.865 838 325.015 838 326.432 838 327.85 836.881 329 835.5 329 834.119 329 833 327.85 833 326.432 833 325.015 834.119 323.865 835.5 323.865ZM835.5 312.932C836.881 312.932 838 314.082 838 315.5 838 316.918 836.881 318.068 835.5 318.068 834.119 318.068 833 316.918 833 315.5 833 314.082 834.119 312.932 835.5 312.932ZM835.5 302C836.881 302 838 303.15 838 304.568 838 305.985 836.881 307.135 835.5 307.135 834.119 307.135 833 305.985 833 304.568 833 303.15 834.119 302 835.5 302Z" fill="#DCDCE8" fill-rule="evenodd"/></g></svg>