<svg xmlns="http://www.w3.org/2000/svg" width="17" height="17" viewBox="0 0 17 17"><defs><style>.a{fill:#2e2e2e;}</style></defs><g transform="translate(3.4)"><path class="a" d="M107.5,0c-2.817,0-5.1,2.854-5.1,6.375s2.283,6.375,5.1,6.375,5.1-2.854,5.1-6.375S110.317,0,107.5,0Zm0,11.9c-2.343,0-4.25-2.479-4.25-5.525S105.157.85,107.5.85s4.25,2.479,4.25,5.525S109.843,11.9,107.5,11.9Z" transform="translate(-102.4)"/></g><g transform="translate(0 12.012)"><path class="a" d="M12.213,361.762a6.06,6.06,0,0,1-.724.6c.81.376,1.52.689,2.127.954,2.251.982,2.535,1.177,2.535,1.733a.908.908,0,0,1-.85.85H1.7a.908.908,0,0,1-.85-.85c0-.557.284-.751,2.535-1.733.607-.265,1.317-.578,2.127-.954a6.068,6.068,0,0,1-.724-.6C1.248,363.382,0,363.6,0,365.05a1.76,1.76,0,0,0,1.7,1.7H15.3a1.76,1.76,0,0,0,1.7-1.7C17,363.6,15.752,363.382,12.213,361.762Z" transform="translate(0 -361.762)"/></g></svg>